<svg xmlns="http://www.w3.org/2000/svg" viewBox="0 0 300 300" enable-background="new 0 0 300 300"><path fill="#25A8E0" d="M142.1 0C131 45.2 23 63.7 23 170.1c0 62 52.7 129.9 127.2 129.9 73.5 0 126.8-63.7 126.8-129.9C277 56.2 157.5 46.6 142.1 0z"/><path fill="#fff" d="M212.9 102.9c-.6-.6-1.3-.8-2.1-.8-15 0-27.3 2-37 6.1s-20 11.5-30.8 22.2c-4.6 4.6-9.6 10.2-15.1 16.8l-32.6 1.7c-.9.1-1.7.6-2.2 1.4l-19.3 33c-.7 1.2-.5 2.3.4 3.4l5.5 5.5c.5.5 1.2.8 2 .8.3 0 .6 0 .8-.1l23.7-7.3 5.8 5.8 12.6 12.6 5.8 5.7-7.3 23.7c-.3 1-.1 1.9.7 2.7l5.5 5.5c.6.5 1.3.8 2 .8.5 0 1-.1 1.4-.3l33-19.3c.8-.6 1.3-1.3 1.4-2.2l1.7-32.6c6.5-5.5 12.1-10.5 16.8-15.1 10.2-10.3 17.5-20.6 21.8-31 4.3-10.4 6.5-22.7 6.5-37-.1-.8-.4-1.4-1-2zM103 194.9l-28.9 45.7 45.7-28.9-16.8-16.8z"/><circle fill="#25A8E0" cx="181.1" cy="135.1" r="10.5"/></svg>