<?xml version="1.0" standalone="no"?>
<!DOCTYPE svg PUBLIC "-//W3C//DTD SVG 20010904//EN"
 "http://www.w3.org/TR/2001/REC-SVG-20010904/DTD/svg10.dtd">
<svg version="1.0" xmlns="http://www.w3.org/2000/svg"
 width="260.000000pt" height="260.000000pt" viewBox="0 0 260.000000 260.000000"
 preserveAspectRatio="xMidYMid meet">
<metadata>
Created by potrace 1.11, written by Peter Selinger 2001-2013
</metadata>
<g transform="translate(0.000000,260.000000) scale(0.100000,-0.100000)"
fill="#000000" stroke="none">
<path d="M1211 2517 c-33 -70 -143 -179 -311 -306 -327 -247 -454 -375 -554
-556 -141 -255 -171 -569 -80 -855 36 -115 124 -288 171 -338 7 -7 13 -17 13
-21 0 -17 188 -200 251 -244 197 -138 398 -199 634 -193 128 4 150 7 230 27
418 107 732 452 821 904 13 67 12 293 -2 379 -46 285 -191 509 -461 713 -79
60 -132 95 -328 218 -60 38 -114 73 -120 77 -5 5 -24 19 -41 31 -78 56 -165
151 -178 195 -11 32 -18 27 -45 -31z"/>
</g>
</svg>
